<svg width="138" height="97" viewBox="0 0 138 97" fill="none" xmlns="http://www.w3.org/2000/svg">
<g opacity="0.09">
<path d="M20.875 41.875C13.1406 41.875 7.125 35.8594 7.125 28.125C7.125 20.6055 13.1406 14.375 20.875 14.375C28.3945 14.375 34.625 20.6055 34.625 28.125C34.625 35.8594 28.3945 41.875 20.875 41.875ZM117.125 41.875C109.391 41.875 103.375 35.8594 103.375 28.125C103.375 20.6055 109.391 14.375 117.125 14.375C124.645 14.375 130.875 20.6055 130.875 28.125C130.875 35.8594 124.645 41.875 117.125 41.875ZM124 48.75C131.52 48.75 137.75 54.9805 137.75 62.5V69.375C137.75 73.2422 134.527 76.25 130.875 76.25H116.695C115.191 66.1523 109.176 57.5586 100.367 52.832C102.945 50.4688 106.383 48.75 110.25 48.75H124ZM69 48.75C55.6797 48.75 44.9375 38.0078 44.9375 24.6875C44.9375 11.582 55.6797 0.625 69 0.625C82.1055 0.625 93.0625 11.582 93.0625 24.6875C93.0625 38.0078 82.1055 48.75 69 48.75ZM85.3281 55.625C99.0781 55.625 110.25 66.7969 110.25 80.5469V86.5625C110.25 92.3633 105.523 96.875 99.9375 96.875H38.0625C32.2617 96.875 27.75 92.3633 27.75 86.5625V80.5469C27.75 66.7969 38.707 55.625 52.457 55.625H54.1758C58.6875 57.7734 63.6289 59.0625 69 59.0625C74.1562 59.0625 79.0977 57.7734 83.6094 55.625H85.3281ZM37.418 52.832C28.6094 57.5586 22.5938 66.1523 21.0898 76.25H7.125C3.25781 76.25 0.25 73.2422 0.25 69.375V62.5C0.25 54.9805 6.26562 48.75 14 48.75H27.75C31.4023 48.75 34.8398 50.4688 37.418 52.832Z" fill="#FFC107"/>
</g>
</svg>
