<svg width="138" height="111" viewBox="0 0 138 111" fill="none" xmlns="http://www.w3.org/2000/svg">
<g opacity="0.09">
<path d="M0.25 48.875C0.25 45.2227 3.25781 42 7.125 42H20.875V110.75H3.6875C1.75391 110.75 0.25 109.246 0.25 107.312V48.875ZM77.5938 38.5625C78.4531 38.5625 79.3125 39.4219 79.3125 40.2812V43.7188C79.3125 44.793 78.4531 45.4375 77.5938 45.4375H67.2812C66.207 45.4375 65.5625 44.793 65.5625 43.7188V29.9688C65.5625 29.1094 66.207 28.25 67.2812 28.25H70.7188C71.5781 28.25 72.4375 29.1094 72.4375 29.9688V38.5625H77.5938ZM107.027 25.0273C108.961 26.1016 110.25 28.25 110.25 30.6133V110.75H82.75V79.8125C82.75 78.0938 81.0312 76.375 79.3125 76.375H58.6875C56.7539 76.375 55.25 78.0938 55.25 79.8125V110.75H27.75V30.6133C27.75 28.25 28.8242 26.1016 30.7578 25.0273L65.1328 2.03906C66.207 1.17969 67.4961 0.964844 69 0.964844C70.2891 0.964844 71.5781 1.17969 72.6523 2.03906L107.027 25.0273ZM69 55.75C78.4531 55.75 86.1875 48.2305 86.1875 38.5625C86.1875 29.1094 78.4531 21.375 69 21.375C59.332 21.375 51.8125 29.1094 51.8125 38.5625C51.8125 48.2305 59.332 55.75 69 55.75ZM130.875 42C134.527 42 137.75 45.2227 137.75 48.875V107.312C137.75 109.246 136.031 110.75 134.312 110.75H117.125V42H130.875Z" fill="#DC3545"/>
</g>
</svg>
