<svg width="125" height="97" viewBox="0 0 125 97" fill="none" xmlns="http://www.w3.org/2000/svg">
<g opacity="0.09">
<path d="M61.2812 25.7617C61.7109 25.332 62.3555 25.1172 63 25.1172C63.4297 25.1172 64.0742 25.332 64.5039 25.7617L104.25 58.2031V93.4375C104.25 95.3711 102.531 96.875 100.812 96.875H76.5352C74.8164 96.875 73.0977 95.3711 73.0977 93.4375V72.8125C73.0977 71.0938 71.5938 69.375 69.6602 69.375H55.9102C54.1914 69.375 52.4727 71.0938 52.4727 72.8125V93.4375C52.4727 95.3711 50.9688 96.875 49.25 96.875H25.1875C23.2539 96.875 21.75 95.3711 21.75 93.4375V58.418L61.2812 25.7617ZM123.801 47.8906C124.445 48.3203 124.875 49.1797 124.875 49.8242C124.875 50.4688 124.66 51.1133 124.23 51.543L118.645 58.2031C118.215 58.8477 117.57 59.0625 116.711 59.0625C116.066 59.0625 115.422 58.8477 114.992 58.418L64.5039 16.9531C64.0742 16.5234 63.4297 16.3086 63 16.3086C62.3555 16.3086 61.7109 16.5234 61.2812 16.9531L10.793 58.418C10.3633 58.8477 9.71875 59.0625 9.07422 59.0625C8.21484 59.0625 7.57031 58.8477 7.14062 58.2031L1.55469 51.543C1.33984 51.1133 0.910156 50.4688 0.910156 49.8242C0.910156 49.1797 1.33984 48.3203 1.98438 47.8906L56.3398 2.98828C58.0586 1.69922 60.4219 0.839844 63 0.839844C65.3633 0.839844 67.7266 1.69922 69.4453 2.98828L88.7812 18.8867V3.41797C88.7812 1.91406 89.8555 0.839844 91.3594 0.839844H103.391C104.68 0.839844 105.969 1.91406 105.969 3.41797V33.0664L123.801 47.8906Z" fill="#007BFF"/>
</g>
</svg>
