<svg width="86" height="87" viewBox="0 0 86 87" fill="none" xmlns="http://www.w3.org/2000/svg">
<rect width="86" height="86.5" rx="43" fill="#E5E5E5"/>
<path d="M29.9375 52.0625C30.5312 52.0625 31.125 52.6562 31.125 53.25V58C31.125 58.668 30.5312 59.1875 29.9375 59.1875H25.1875C24.5195 59.1875 24 58.668 24 58V53.25C24 52.6562 24.5195 52.0625 25.1875 52.0625H29.9375ZM29.9375 28.3125C30.5312 28.3125 31.125 28.9062 31.125 29.5V34.25C31.125 34.918 30.5312 35.4375 29.9375 35.4375H25.1875C24.5195 35.4375 24 34.918 24 34.25V29.5C24 28.9062 24.5195 28.3125 25.1875 28.3125H29.9375ZM29.9375 40.1875C30.5312 40.1875 31.125 40.7812 31.125 41.375V46.125C31.125 46.793 30.5312 47.3125 29.9375 47.3125H25.1875C24.5195 47.3125 24 46.793 24 46.125V41.375C24 40.7812 24.5195 40.1875 25.1875 40.1875H29.9375ZM60.8125 53.25C61.4062 53.25 62 53.8438 62 54.4375V56.8125C62 57.4805 61.4062 58 60.8125 58H37.0625C36.3945 58 35.875 57.4805 35.875 56.8125V54.4375C35.875 53.8438 36.3945 53.25 37.0625 53.25H60.8125ZM60.8125 29.5C61.4062 29.5 62 30.0938 62 30.6875V33.0625C62 33.7305 61.4062 34.25 60.8125 34.25H37.0625C36.3945 34.25 35.875 33.7305 35.875 33.0625V30.6875C35.875 30.0938 36.3945 29.5 37.0625 29.5H60.8125ZM60.8125 41.375C61.4062 41.375 62 41.9688 62 42.5625V44.9375C62 45.6055 61.4062 46.125 60.8125 46.125H37.0625C36.3945 46.125 35.875 45.6055 35.875 44.9375V42.5625C35.875 41.9688 36.3945 41.375 37.0625 41.375H60.8125Z" fill="#808080"/>
</svg>
