<svg width="86" height="87" viewBox="0 0 86 87" fill="none" xmlns="http://www.w3.org/2000/svg">
<rect width="86" height="86.5" rx="43" fill="#E5E5E5"/>
<path d="M37.6562 44.1953C37.8789 45.2344 36.7656 46.0508 35.875 45.5312L32.832 43.6016L29.0469 49.6875C28.082 51.2461 29.1953 53.25 31.125 53.25H34.9844C35.4297 53.25 35.875 53.6953 35.875 54.1406V57.1094C35.875 57.6289 35.4297 58 34.9844 58H31.125C25.4844 58 22.0703 51.8398 25.0391 47.1641L28.8242 41.0781L25.7812 39.2227C24.8906 38.6289 25.1133 37.293 26.1523 37.0703L34.3164 35.1406C34.9844 34.9922 35.6523 35.4375 35.8008 36.0312L37.6562 44.1953ZM45.0039 30.6133C44.0391 29.2031 41.8867 29.1289 40.9219 30.6875L39.5859 32.7656C39.3633 33.2109 38.7695 33.3594 38.3984 33.0625L35.875 31.5039C35.4297 31.207 35.3555 30.6875 35.5781 30.2422L36.9141 28.1641C39.7344 23.6367 46.1914 23.7109 49.0117 28.1641L52.0547 33.0625L55.0977 31.1328C55.9883 30.6133 57.1016 31.4297 56.8789 32.3945L54.9492 40.6328C54.875 41.2266 54.207 41.6719 53.5391 41.5234L45.375 39.5938C44.3359 39.3711 44.1133 38.0352 45.0039 37.4414L48.0469 35.5859L45.0039 30.6133ZM60.8867 47.1641C63.8555 51.9141 60.4414 58 54.8008 58H47.75V61.5625C47.75 62.6758 46.4141 63.1953 45.6719 62.4531L39.7344 56.5156C39.2891 56.0703 39.2891 55.2539 39.7344 54.8086L45.6719 48.8711C46.4141 48.1289 47.75 48.6484 47.75 49.7617V53.3242H54.8008C56.7305 53.3242 57.8438 51.2461 56.8789 49.6875L54.8008 46.3477C54.5781 45.9766 54.6523 45.3828 55.0977 45.1602L57.6211 43.6016C57.9922 43.3047 58.5859 43.4531 58.8086 43.8984L60.8867 47.1641Z" fill="#808080"/>
</svg>
