<svg width="87" height="87" viewBox="0 0 87 87" fill="none" xmlns="http://www.w3.org/2000/svg">
<rect width="86.75" height="86.5" rx="43" fill="#E5E5E5"/>
<path d="M60.005 30.2422V33.582C60.005 36.625 52.5089 39 43.38 39C34.1769 39 26.755 36.625 26.755 33.582V30.2422C26.755 27.1992 34.1769 24.75 43.38 24.75C52.5089 24.75 60.005 27.1992 60.005 30.2422ZM60.005 37.8125V45.457C60.005 48.5 52.5089 50.875 43.38 50.875C34.1769 50.875 26.755 48.5 26.755 45.457V37.8125C30.3175 40.3359 36.8488 41.4492 43.38 41.4492C49.837 41.4492 56.3683 40.3359 60.005 37.8125ZM60.005 49.6875V57.332C60.005 60.375 52.5089 62.75 43.38 62.75C34.1769 62.75 26.755 60.375 26.755 57.332V49.6875C30.3175 52.2109 36.8488 53.3242 43.38 53.3242C49.837 53.3242 56.3683 52.2109 60.005 49.6875Z" fill="#808080"/>
</svg>
