<svg width="87" height="87" viewBox="0 0 87 87" fill="none" xmlns="http://www.w3.org/2000/svg">
<rect width="86.75" height="86.5" rx="43" fill="#E5E5E5"/>
<path d="M59.1144 39H49.9113C48.8722 39 48.13 38.2578 48.13 37.2188V28.0156C48.13 27.5703 48.5011 27.125 49.0206 27.125H51.9894C52.4347 27.125 52.88 27.5703 52.88 28.0156V34.25H59.1144C59.5597 34.25 60.005 34.6953 60.005 35.1406V38.1094C60.005 38.6289 59.5597 39 59.1144 39ZM38.63 37.2188C38.63 38.2578 37.8136 39 36.8488 39H27.6456C27.1261 39 26.755 38.6289 26.755 38.1094V35.1406C26.755 34.6953 27.1261 34.25 27.6456 34.25H33.88V28.0156C33.88 27.5703 34.2511 27.125 34.7706 27.125H37.7394C38.1847 27.125 38.63 27.5703 38.63 28.0156V37.2188ZM38.63 59.4844C38.63 60.0039 38.1847 60.375 37.7394 60.375H34.7706C34.2511 60.375 33.88 60.0039 33.88 59.4844V53.25H27.6456C27.1261 53.25 26.755 52.8789 26.755 52.3594V49.3906C26.755 48.9453 27.1261 48.5 27.6456 48.5H36.8488C37.8136 48.5 38.63 49.3164 38.63 50.2812V59.4844ZM52.88 59.4844C52.88 60.0039 52.4347 60.375 51.9894 60.375H49.0206C48.5011 60.375 48.13 60.0039 48.13 59.4844V50.2812C48.13 49.3164 48.8722 48.5 49.9113 48.5H59.1144C59.5597 48.5 60.005 48.9453 60.005 49.3906V52.3594C60.005 52.8789 59.5597 53.25 59.1144 53.25H52.88V59.4844Z" fill="#808080"/>
</svg>
