<svg width="87" height="87" viewBox="0 0 87 87" fill="none" xmlns="http://www.w3.org/2000/svg">
<rect width="86.75" height="86.5" rx="43" fill="#E5E5E5"/>
<path d="M58.8175 27.125C59.4113 27.125 60.005 27.7188 60.005 28.3125V30.6875C60.005 31.3555 59.4113 31.875 58.8175 31.875H27.9425C27.2745 31.875 26.755 31.3555 26.755 30.6875V28.3125C26.755 27.7188 27.2745 27.125 27.9425 27.125H36.8488L37.5167 25.7891C37.8136 25.1953 38.4073 24.75 39.0753 24.75H47.6105C48.2784 24.75 48.8722 25.1953 49.1691 25.7891L49.9113 27.125H58.8175ZM30.6886 59.4102L29.13 34.25H57.63L55.9972 59.4102C55.923 61.3398 54.3644 62.75 52.4347 62.75H34.2511C32.3214 62.75 30.7628 61.3398 30.6886 59.4102Z" fill="#808080"/>
</svg>
